<mxfile host="app.diagrams.net" agent="Mozilla/5.0 (Macintosh; Intel Mac OS X 10_15_7) AppleWebKit/605.1.15 (KHTML, like Gecko) Version/18.3 Safari/605.1.15" version="26.0.12" pages="2">
  <diagram name="Page-1" id="6EuT3WrSof2J02qX2gXS">
    <mxGraphModel dx="677" dy="889" grid="1" gridSize="10" guides="1" tooltips="1" connect="1" arrows="1" fold="1" page="1" pageScale="1" pageWidth="827" pageHeight="1169" math="0" shadow="0">
      <root>
        <mxCell id="0" />
        <mxCell id="1" parent="0" />
        <mxCell id="ruOqabPLvEod-Vh73xAu-5" style="edgeStyle=orthogonalEdgeStyle;rounded=0;orthogonalLoop=1;jettySize=auto;html=1;" parent="1" source="ruOqabPLvEod-Vh73xAu-1" target="ruOqabPLvEod-Vh73xAu-2" edge="1">
          <mxGeometry relative="1" as="geometry" />
        </mxCell>
        <mxCell id="ruOqabPLvEod-Vh73xAu-1" value="Inicio" style="ellipse;whiteSpace=wrap;html=1;" parent="1" vertex="1">
          <mxGeometry x="354" y="20" width="120" height="80" as="geometry" />
        </mxCell>
        <mxCell id="ruOqabPLvEod-Vh73xAu-4" style="edgeStyle=orthogonalEdgeStyle;rounded=0;orthogonalLoop=1;jettySize=auto;html=1;" parent="1" source="ruOqabPLvEod-Vh73xAu-2" target="ruOqabPLvEod-Vh73xAu-3" edge="1">
          <mxGeometry relative="1" as="geometry" />
        </mxCell>
        <mxCell id="ruOqabPLvEod-Vh73xAu-2" value="&lt;div&gt;Producto productos[MAX_PRODUCTOS];&lt;/div&gt;&lt;div&gt;Producto *ptr_productos;&lt;/div&gt;&lt;div&gt;int op1 = 0, i = 0;&lt;/div&gt;&lt;div&gt;int num_productos = 0;&lt;/div&gt;&lt;div&gt;int *ptr_num_productos;&lt;/div&gt;&lt;div&gt;&lt;br&gt;&lt;/div&gt;&lt;div&gt;ptr_productos = productos;&lt;/div&gt;&lt;div&gt;ptr_num_productos = &amp;amp;num_productos;&lt;/div&gt;" style="rounded=1;whiteSpace=wrap;html=1;align=left;" parent="1" vertex="1">
          <mxGeometry x="294" y="150" width="240" height="140" as="geometry" />
        </mxCell>
        <mxCell id="3Sx2Qex6pyJ97NF9Tx8A-2" style="edgeStyle=orthogonalEdgeStyle;rounded=0;orthogonalLoop=1;jettySize=auto;html=1;" parent="1" source="ruOqabPLvEod-Vh73xAu-3" target="ruOqabPLvEod-Vh73xAu-8" edge="1">
          <mxGeometry relative="1" as="geometry" />
        </mxCell>
        <mxCell id="ruOqabPLvEod-Vh73xAu-3" value="introducir_datos(ptr_productos, ptr_num_productos);" style="rhombus;whiteSpace=wrap;html=1;" parent="1" vertex="1">
          <mxGeometry x="279" y="320" width="270" height="80" as="geometry" />
        </mxCell>
        <mxCell id="_RCZSidMVmDdS2dCk8SO-2" style="edgeStyle=orthogonalEdgeStyle;rounded=0;orthogonalLoop=1;jettySize=auto;html=1;" edge="1" parent="1" source="ruOqabPLvEod-Vh73xAu-8" target="_RCZSidMVmDdS2dCk8SO-1">
          <mxGeometry relative="1" as="geometry" />
        </mxCell>
        <mxCell id="ruOqabPLvEod-Vh73xAu-8" value="&lt;div&gt;printf(&quot;Introduzca una opcion:\n&quot;&lt;/div&gt;&lt;div&gt;&amp;nbsp; &amp;nbsp; &amp;nbsp; &amp;nbsp; &amp;nbsp; &amp;nbsp; &amp;nbsp; &amp;nbsp; &quot;1.- Venta de un producto\n&quot;&lt;/div&gt;&lt;div&gt;&amp;nbsp; &amp;nbsp; &amp;nbsp; &amp;nbsp; &amp;nbsp; &amp;nbsp; &amp;nbsp; &amp;nbsp; &quot;2.- Reabastecimiento de un producto\n&quot;&lt;/div&gt;&lt;div&gt;&amp;nbsp; &amp;nbsp; &amp;nbsp; &amp;nbsp; &amp;nbsp; &amp;nbsp; &amp;nbsp; &amp;nbsp; &quot;3.- Actualizar el precio de un producto\n&quot;&lt;/div&gt;&lt;div&gt;&amp;nbsp; &amp;nbsp; &amp;nbsp; &amp;nbsp; &amp;nbsp; &amp;nbsp; &amp;nbsp; &amp;nbsp; &quot;4.- Informar sobre un producto\n&quot;&lt;/div&gt;&lt;div&gt;&amp;nbsp; &amp;nbsp; &amp;nbsp; &amp;nbsp; &amp;nbsp; &amp;nbsp; &amp;nbsp; &amp;nbsp; &quot;5.- Salir\n&quot;);&lt;/div&gt;" style="shape=parallelogram;perimeter=parallelogramPerimeter;whiteSpace=wrap;html=1;fixedSize=1;align=center;" parent="1" vertex="1">
          <mxGeometry x="264" y="420" width="300" height="90" as="geometry" />
        </mxCell>
        <mxCell id="nYfpYbDwFtSisSZFNhtA-3" style="edgeStyle=orthogonalEdgeStyle;rounded=0;orthogonalLoop=1;jettySize=auto;html=1;entryX=0.5;entryY=0;entryDx=0;entryDy=0;" parent="1" source="nYfpYbDwFtSisSZFNhtA-7" target="nYfpYbDwFtSisSZFNhtA-9" edge="1">
          <mxGeometry relative="1" as="geometry" />
        </mxCell>
        <mxCell id="nYfpYbDwFtSisSZFNhtA-4" style="edgeStyle=orthogonalEdgeStyle;rounded=0;orthogonalLoop=1;jettySize=auto;html=1;exitX=0;exitY=0.75;exitDx=0;exitDy=0;entryX=0.5;entryY=0;entryDx=0;entryDy=0;" parent="1" source="nYfpYbDwFtSisSZFNhtA-7" target="nYfpYbDwFtSisSZFNhtA-15" edge="1">
          <mxGeometry relative="1" as="geometry">
            <Array as="points">
              <mxPoint x="363" y="730" />
              <mxPoint x="329" y="730" />
            </Array>
          </mxGeometry>
        </mxCell>
        <mxCell id="nYfpYbDwFtSisSZFNhtA-5" style="edgeStyle=orthogonalEdgeStyle;rounded=0;orthogonalLoop=1;jettySize=auto;html=1;exitX=1;exitY=0.75;exitDx=0;exitDy=0;entryX=0.5;entryY=0;entryDx=0;entryDy=0;" parent="1" source="nYfpYbDwFtSisSZFNhtA-7" target="nYfpYbDwFtSisSZFNhtA-13" edge="1">
          <mxGeometry relative="1" as="geometry">
            <Array as="points">
              <mxPoint x="509" y="727" />
            </Array>
          </mxGeometry>
        </mxCell>
        <mxCell id="nYfpYbDwFtSisSZFNhtA-6" style="edgeStyle=orthogonalEdgeStyle;rounded=0;orthogonalLoop=1;jettySize=auto;html=1;entryX=0.5;entryY=0;entryDx=0;entryDy=0;" parent="1" source="nYfpYbDwFtSisSZFNhtA-7" target="nYfpYbDwFtSisSZFNhtA-11" edge="1">
          <mxGeometry relative="1" as="geometry" />
        </mxCell>
        <mxCell id="nYfpYbDwFtSisSZFNhtA-7" value="op1" style="shape=hexagon;perimeter=hexagonPerimeter2;whiteSpace=wrap;html=1;fixedSize=1;" parent="1" vertex="1">
          <mxGeometry x="354" y="670" width="120" height="80" as="geometry" />
        </mxCell>
        <mxCell id="nYfpYbDwFtSisSZFNhtA-8" style="edgeStyle=orthogonalEdgeStyle;rounded=0;orthogonalLoop=1;jettySize=auto;html=1;entryX=0.5;entryY=0;entryDx=0;entryDy=0;" parent="1" source="nYfpYbDwFtSisSZFNhtA-9" target="nYfpYbDwFtSisSZFNhtA-16" edge="1">
          <mxGeometry relative="1" as="geometry" />
        </mxCell>
        <mxCell id="nYfpYbDwFtSisSZFNhtA-9" value="1" style="rounded=1;whiteSpace=wrap;html=1;" parent="1" vertex="1">
          <mxGeometry x="79" y="780" width="120" height="60" as="geometry" />
        </mxCell>
        <mxCell id="nYfpYbDwFtSisSZFNhtA-10" style="edgeStyle=orthogonalEdgeStyle;rounded=0;orthogonalLoop=1;jettySize=auto;html=1;entryX=0.5;entryY=0;entryDx=0;entryDy=0;" parent="1" source="nYfpYbDwFtSisSZFNhtA-11" target="nYfpYbDwFtSisSZFNhtA-17" edge="1">
          <mxGeometry relative="1" as="geometry" />
        </mxCell>
        <mxCell id="nYfpYbDwFtSisSZFNhtA-11" value="4" style="rounded=1;whiteSpace=wrap;html=1;" parent="1" vertex="1">
          <mxGeometry x="629" y="780" width="120" height="60" as="geometry" />
        </mxCell>
        <mxCell id="nYfpYbDwFtSisSZFNhtA-12" style="edgeStyle=orthogonalEdgeStyle;rounded=0;orthogonalLoop=1;jettySize=auto;html=1;entryX=0.5;entryY=0;entryDx=0;entryDy=0;" parent="1" source="nYfpYbDwFtSisSZFNhtA-13" target="nYfpYbDwFtSisSZFNhtA-18" edge="1">
          <mxGeometry relative="1" as="geometry" />
        </mxCell>
        <mxCell id="nYfpYbDwFtSisSZFNhtA-13" value="3" style="rounded=1;whiteSpace=wrap;html=1;" parent="1" vertex="1">
          <mxGeometry x="449" y="780" width="120" height="60" as="geometry" />
        </mxCell>
        <mxCell id="nYfpYbDwFtSisSZFNhtA-14" style="edgeStyle=orthogonalEdgeStyle;rounded=0;orthogonalLoop=1;jettySize=auto;html=1;entryX=0.5;entryY=0;entryDx=0;entryDy=0;" parent="1" source="nYfpYbDwFtSisSZFNhtA-15" target="nYfpYbDwFtSisSZFNhtA-19" edge="1">
          <mxGeometry relative="1" as="geometry" />
        </mxCell>
        <mxCell id="nYfpYbDwFtSisSZFNhtA-15" value="2" style="rounded=1;whiteSpace=wrap;html=1;" parent="1" vertex="1">
          <mxGeometry x="269" y="780" width="120" height="60" as="geometry" />
        </mxCell>
        <mxCell id="_RCZSidMVmDdS2dCk8SO-5" style="edgeStyle=orthogonalEdgeStyle;rounded=0;orthogonalLoop=1;jettySize=auto;html=1;entryX=0;entryY=0.5;entryDx=0;entryDy=0;" edge="1" parent="1" source="nYfpYbDwFtSisSZFNhtA-16" target="_RCZSidMVmDdS2dCk8SO-4">
          <mxGeometry relative="1" as="geometry">
            <Array as="points">
              <mxPoint x="112" y="1090" />
            </Array>
          </mxGeometry>
        </mxCell>
        <mxCell id="nYfpYbDwFtSisSZFNhtA-16" value="&lt;div&gt;limpiar_pantalla(); &amp;nbsp; &amp;nbsp; &amp;nbsp; venta_producto(ptr_productos, ptr_num_productos);&lt;/div&gt;&lt;div&gt;&amp;nbsp; &amp;nbsp; &amp;nbsp; &amp;nbsp; &amp;nbsp; &amp;nbsp; break;&lt;/div&gt;" style="rounded=1;whiteSpace=wrap;html=1;" parent="1" vertex="1">
          <mxGeometry x="24" y="870" width="175" height="130" as="geometry" />
        </mxCell>
        <mxCell id="_RCZSidMVmDdS2dCk8SO-8" style="edgeStyle=orthogonalEdgeStyle;rounded=0;orthogonalLoop=1;jettySize=auto;html=1;entryX=1;entryY=0.5;entryDx=0;entryDy=0;" edge="1" parent="1" source="nYfpYbDwFtSisSZFNhtA-17" target="_RCZSidMVmDdS2dCk8SO-4">
          <mxGeometry relative="1" as="geometry">
            <Array as="points">
              <mxPoint x="729" y="1090" />
            </Array>
          </mxGeometry>
        </mxCell>
        <mxCell id="nYfpYbDwFtSisSZFNhtA-17" value="&lt;div&gt;limpiar_pantalla(); &amp;nbsp; &amp;nbsp; &amp;nbsp; &amp;nbsp; &amp;nbsp; &amp;nbsp;informe_productos(ptr_productos, ptr_num_productos);&lt;/div&gt;&lt;div&gt;&amp;nbsp; &amp;nbsp; &amp;nbsp; &amp;nbsp; &amp;nbsp; &amp;nbsp; break;&lt;/div&gt;" style="rounded=1;whiteSpace=wrap;html=1;" parent="1" vertex="1">
          <mxGeometry x="654" y="870" width="150" height="110" as="geometry" />
        </mxCell>
        <mxCell id="_RCZSidMVmDdS2dCk8SO-7" style="edgeStyle=orthogonalEdgeStyle;rounded=0;orthogonalLoop=1;jettySize=auto;html=1;entryX=0.75;entryY=0;entryDx=0;entryDy=0;" edge="1" parent="1" source="nYfpYbDwFtSisSZFNhtA-18" target="_RCZSidMVmDdS2dCk8SO-4">
          <mxGeometry relative="1" as="geometry" />
        </mxCell>
        <mxCell id="nYfpYbDwFtSisSZFNhtA-18" value="&lt;div&gt;limpiar_pantalla(); &amp;nbsp; &amp;nbsp; &amp;nbsp; &amp;nbsp; &amp;nbsp; &amp;nbsp;actualizar_precio_producto(ptr_productos, ptr_num_productos);&lt;/div&gt;&lt;div&gt;&amp;nbsp; &amp;nbsp; &amp;nbsp; &amp;nbsp; &amp;nbsp; &amp;nbsp; break;&lt;/div&gt;" style="rounded=1;whiteSpace=wrap;html=1;" parent="1" vertex="1">
          <mxGeometry x="414" y="880" width="220" height="120" as="geometry" />
        </mxCell>
        <mxCell id="_RCZSidMVmDdS2dCk8SO-6" style="edgeStyle=orthogonalEdgeStyle;rounded=0;orthogonalLoop=1;jettySize=auto;html=1;entryX=0.25;entryY=0;entryDx=0;entryDy=0;" edge="1" parent="1" source="nYfpYbDwFtSisSZFNhtA-19" target="_RCZSidMVmDdS2dCk8SO-4">
          <mxGeometry relative="1" as="geometry" />
        </mxCell>
        <mxCell id="nYfpYbDwFtSisSZFNhtA-19" value="&lt;div&gt;limpiar_pantalla(); &amp;nbsp; &amp;nbsp; &amp;nbsp; &amp;nbsp; &amp;nbsp; &amp;nbsp;restock_producto(ptr_productos, ptr_num_productos);&lt;/div&gt;&lt;div&gt;&amp;nbsp; &amp;nbsp; &amp;nbsp; &amp;nbsp; &amp;nbsp; &amp;nbsp; break;&lt;/div&gt;" style="rounded=1;whiteSpace=wrap;html=1;" parent="1" vertex="1">
          <mxGeometry x="224" y="870" width="180" height="130" as="geometry" />
        </mxCell>
        <mxCell id="_RCZSidMVmDdS2dCk8SO-3" style="edgeStyle=orthogonalEdgeStyle;rounded=0;orthogonalLoop=1;jettySize=auto;html=1;" edge="1" parent="1" source="_RCZSidMVmDdS2dCk8SO-1" target="nYfpYbDwFtSisSZFNhtA-7">
          <mxGeometry relative="1" as="geometry" />
        </mxCell>
        <mxCell id="_RCZSidMVmDdS2dCk8SO-1" value="scanf(&quot;%d&quot;, &amp;amp;op1) != 1" style="shape=parallelogram;perimeter=parallelogramPerimeter;whiteSpace=wrap;html=1;fixedSize=1;" vertex="1" parent="1">
          <mxGeometry x="309" y="564" width="210" height="60" as="geometry" />
        </mxCell>
        <mxCell id="_RCZSidMVmDdS2dCk8SO-99" value="" style="edgeStyle=orthogonalEdgeStyle;rounded=0;orthogonalLoop=1;jettySize=auto;html=1;" edge="1" parent="1" source="_RCZSidMVmDdS2dCk8SO-4" target="_RCZSidMVmDdS2dCk8SO-98">
          <mxGeometry relative="1" as="geometry" />
        </mxCell>
        <mxCell id="_RCZSidMVmDdS2dCk8SO-104" value="" style="edgeStyle=orthogonalEdgeStyle;rounded=0;orthogonalLoop=1;jettySize=auto;html=1;exitX=0;exitY=1;exitDx=0;exitDy=0;" edge="1" parent="1" source="_RCZSidMVmDdS2dCk8SO-4" target="_RCZSidMVmDdS2dCk8SO-103">
          <mxGeometry relative="1" as="geometry">
            <Array as="points">
              <mxPoint x="384" y="1130" />
            </Array>
          </mxGeometry>
        </mxCell>
        <mxCell id="_RCZSidMVmDdS2dCk8SO-4" value="op1 == 5" style="rounded=1;whiteSpace=wrap;html=1;shape=rhombus;perimeter=rhombusPerimeter;" vertex="1" parent="1">
          <mxGeometry x="354" y="1060" width="120" height="60" as="geometry" />
        </mxCell>
        <mxCell id="_RCZSidMVmDdS2dCk8SO-13" style="edgeStyle=orthogonalEdgeStyle;rounded=0;orthogonalLoop=1;jettySize=auto;html=1;" edge="1" parent="1" source="_RCZSidMVmDdS2dCk8SO-9" target="_RCZSidMVmDdS2dCk8SO-10">
          <mxGeometry relative="1" as="geometry" />
        </mxCell>
        <mxCell id="_RCZSidMVmDdS2dCk8SO-9" value="limpiar_pantalla" style="ellipse;whiteSpace=wrap;html=1;" vertex="1" parent="1">
          <mxGeometry x="354" y="1310" width="120" height="80" as="geometry" />
        </mxCell>
        <mxCell id="_RCZSidMVmDdS2dCk8SO-14" style="edgeStyle=orthogonalEdgeStyle;rounded=0;orthogonalLoop=1;jettySize=auto;html=1;" edge="1" parent="1" source="_RCZSidMVmDdS2dCk8SO-10" target="_RCZSidMVmDdS2dCk8SO-11">
          <mxGeometry relative="1" as="geometry" />
        </mxCell>
        <mxCell id="_RCZSidMVmDdS2dCk8SO-10" value="if _WIN32" style="rhombus;whiteSpace=wrap;html=1;" vertex="1" parent="1">
          <mxGeometry x="374" y="1420" width="80" height="80" as="geometry" />
        </mxCell>
        <mxCell id="_RCZSidMVmDdS2dCk8SO-15" style="edgeStyle=orthogonalEdgeStyle;rounded=0;orthogonalLoop=1;jettySize=auto;html=1;" edge="1" parent="1" source="_RCZSidMVmDdS2dCk8SO-11" target="_RCZSidMVmDdS2dCk8SO-12">
          <mxGeometry relative="1" as="geometry" />
        </mxCell>
        <mxCell id="_RCZSidMVmDdS2dCk8SO-11" value="system(&quot;cls&quot;)" style="rounded=1;whiteSpace=wrap;html=1;" vertex="1" parent="1">
          <mxGeometry x="354" y="1530" width="120" height="60" as="geometry" />
        </mxCell>
        <mxCell id="_RCZSidMVmDdS2dCk8SO-17" style="edgeStyle=orthogonalEdgeStyle;rounded=0;orthogonalLoop=1;jettySize=auto;html=1;" edge="1" parent="1" source="_RCZSidMVmDdS2dCk8SO-12" target="_RCZSidMVmDdS2dCk8SO-16">
          <mxGeometry relative="1" as="geometry" />
        </mxCell>
        <mxCell id="_RCZSidMVmDdS2dCk8SO-12" value="system(&quot;clear&quot;)" style="rounded=1;whiteSpace=wrap;html=1;" vertex="1" parent="1">
          <mxGeometry x="354" y="1620" width="120" height="60" as="geometry" />
        </mxCell>
        <mxCell id="_RCZSidMVmDdS2dCk8SO-16" value="FIN" style="rounded=1;whiteSpace=wrap;html=1;shape=ellipse;perimeter=ellipsePerimeter;" vertex="1" parent="1">
          <mxGeometry x="354" y="1710" width="120" height="60" as="geometry" />
        </mxCell>
        <mxCell id="_RCZSidMVmDdS2dCk8SO-38" style="edgeStyle=orthogonalEdgeStyle;rounded=0;orthogonalLoop=1;jettySize=auto;html=1;" edge="1" parent="1" source="_RCZSidMVmDdS2dCk8SO-18" target="_RCZSidMVmDdS2dCk8SO-37">
          <mxGeometry relative="1" as="geometry" />
        </mxCell>
        <mxCell id="_RCZSidMVmDdS2dCk8SO-18" value="obtener_clave()" style="ellipse;whiteSpace=wrap;html=1;" vertex="1" parent="1">
          <mxGeometry x="354" y="1800" width="120" height="80" as="geometry" />
        </mxCell>
        <mxCell id="_RCZSidMVmDdS2dCk8SO-23" style="edgeStyle=orthogonalEdgeStyle;rounded=0;orthogonalLoop=1;jettySize=auto;html=1;" edge="1" parent="1" source="_RCZSidMVmDdS2dCk8SO-19" target="_RCZSidMVmDdS2dCk8SO-20">
          <mxGeometry relative="1" as="geometry" />
        </mxCell>
        <mxCell id="_RCZSidMVmDdS2dCk8SO-19" value="scanf(&quot;%d&quot;, &amp;amp;clave)" style="shape=parallelogram;perimeter=parallelogramPerimeter;whiteSpace=wrap;html=1;fixedSize=1;" vertex="1" parent="1">
          <mxGeometry x="336" y="2000" width="156" height="60" as="geometry" />
        </mxCell>
        <mxCell id="_RCZSidMVmDdS2dCk8SO-27" style="edgeStyle=orthogonalEdgeStyle;rounded=0;orthogonalLoop=1;jettySize=auto;html=1;" edge="1" parent="1" source="_RCZSidMVmDdS2dCk8SO-20" target="_RCZSidMVmDdS2dCk8SO-26">
          <mxGeometry relative="1" as="geometry" />
        </mxCell>
        <mxCell id="_RCZSidMVmDdS2dCk8SO-20" value="getchars() != &#39;n&#39;" style="shape=label;whiteSpace=wrap;html=1;fixedSize=1;rounded=1;" vertex="1" parent="1">
          <mxGeometry x="354" y="2090" width="120" height="60" as="geometry" />
        </mxCell>
        <mxCell id="_RCZSidMVmDdS2dCk8SO-26" value="FIN" style="rounded=1;whiteSpace=wrap;html=1;shape=ellipse;perimeter=ellipsePerimeter;" vertex="1" parent="1">
          <mxGeometry x="354" y="2180" width="120" height="60" as="geometry" />
        </mxCell>
        <mxCell id="_RCZSidMVmDdS2dCk8SO-30" style="edgeStyle=orthogonalEdgeStyle;rounded=0;orthogonalLoop=1;jettySize=auto;html=1;" edge="1" parent="1" source="_RCZSidMVmDdS2dCk8SO-28" target="_RCZSidMVmDdS2dCk8SO-29">
          <mxGeometry relative="1" as="geometry" />
        </mxCell>
        <mxCell id="_RCZSidMVmDdS2dCk8SO-28" value="imprimir_producto(Producto *productos, int indice)" style="ellipse;whiteSpace=wrap;html=1;" vertex="1" parent="1">
          <mxGeometry x="259.5" y="2380" width="307" height="80" as="geometry" />
        </mxCell>
        <mxCell id="_RCZSidMVmDdS2dCk8SO-33" style="edgeStyle=orthogonalEdgeStyle;rounded=0;orthogonalLoop=1;jettySize=auto;html=1;" edge="1" parent="1" source="_RCZSidMVmDdS2dCk8SO-29" target="_RCZSidMVmDdS2dCk8SO-32">
          <mxGeometry relative="1" as="geometry" />
        </mxCell>
        <mxCell id="_RCZSidMVmDdS2dCk8SO-29" value="&lt;div&gt;printf(&quot;\n\n\n\t\tNumero de producto: %d\n&quot;, indice+1);&lt;/div&gt;&lt;div&gt;&amp;nbsp; &amp;nbsp; printf(&quot;\t\tClave del producto: %d\n&quot;, productos[indice].clave);&lt;/div&gt;&lt;div&gt;&amp;nbsp; &amp;nbsp; printf(&quot;\t\tDescripcion del producto: %s\n&quot;, productos[indice].descrip);&lt;/div&gt;&lt;div&gt;&amp;nbsp; &amp;nbsp; printf(&quot;\t\tExistencia del producto: %d\n&quot;, productos[indice].exist);&lt;/div&gt;&lt;div&gt;&amp;nbsp; &amp;nbsp; printf(&quot;\t\tExistencia minima del producto: %d\n&quot;, productos[indice].min_exist);&lt;/div&gt;&lt;div&gt;&amp;nbsp; &amp;nbsp; printf(&quot;\t\tPrecio unitario del producto: %f\n\n\n&quot;, productos[indice].precio_uni);&lt;/div&gt;" style="shape=parallelogram;perimeter=parallelogramPerimeter;whiteSpace=wrap;html=1;fixedSize=1;" vertex="1" parent="1">
          <mxGeometry x="190" y="2490" width="446" height="120" as="geometry" />
        </mxCell>
        <mxCell id="_RCZSidMVmDdS2dCk8SO-32" value="return 0;" style="rounded=1;whiteSpace=wrap;html=1;" vertex="1" parent="1">
          <mxGeometry x="354" y="2660" width="120" height="60" as="geometry" />
        </mxCell>
        <mxCell id="_RCZSidMVmDdS2dCk8SO-40" style="edgeStyle=orthogonalEdgeStyle;rounded=0;orthogonalLoop=1;jettySize=auto;html=1;" edge="1" parent="1" source="_RCZSidMVmDdS2dCk8SO-34" target="_RCZSidMVmDdS2dCk8SO-35">
          <mxGeometry relative="1" as="geometry" />
        </mxCell>
        <mxCell id="_RCZSidMVmDdS2dCk8SO-34" value="introducir_datos(Producto &amp;nbsp;*productos, int *num_productos)" style="ellipse;whiteSpace=wrap;html=1;" vertex="1" parent="1">
          <mxGeometry x="239" y="2770" width="350" height="80" as="geometry" />
        </mxCell>
        <mxCell id="_RCZSidMVmDdS2dCk8SO-76" style="edgeStyle=orthogonalEdgeStyle;rounded=0;orthogonalLoop=1;jettySize=auto;html=1;" edge="1" parent="1" source="_RCZSidMVmDdS2dCk8SO-35" target="_RCZSidMVmDdS2dCk8SO-41">
          <mxGeometry relative="1" as="geometry" />
        </mxCell>
        <mxCell id="_RCZSidMVmDdS2dCk8SO-35" value="int op1 = 0, op2 = 0, i = 0;" style="rounded=1;whiteSpace=wrap;html=1;" vertex="1" parent="1">
          <mxGeometry x="326" y="2893" width="176" height="60" as="geometry" />
        </mxCell>
        <mxCell id="_RCZSidMVmDdS2dCk8SO-39" style="edgeStyle=orthogonalEdgeStyle;rounded=0;orthogonalLoop=1;jettySize=auto;html=1;exitX=0.5;exitY=1;exitDx=0;exitDy=0;" edge="1" parent="1" source="_RCZSidMVmDdS2dCk8SO-37" target="_RCZSidMVmDdS2dCk8SO-19">
          <mxGeometry relative="1" as="geometry" />
        </mxCell>
        <mxCell id="_RCZSidMVmDdS2dCk8SO-37" value="int clave" style="whiteSpace=wrap;html=1;" vertex="1" parent="1">
          <mxGeometry x="354" y="1910" width="120" height="60" as="geometry" />
        </mxCell>
        <mxCell id="_RCZSidMVmDdS2dCk8SO-49" style="edgeStyle=orthogonalEdgeStyle;rounded=0;orthogonalLoop=1;jettySize=auto;html=1;entryX=0.5;entryY=0;entryDx=0;entryDy=0;" edge="1" parent="1" source="_RCZSidMVmDdS2dCk8SO-41" target="_RCZSidMVmDdS2dCk8SO-42">
          <mxGeometry relative="1" as="geometry" />
        </mxCell>
        <mxCell id="_RCZSidMVmDdS2dCk8SO-41" value="&lt;div&gt;printf(&quot;Introduzca los datos solicitados\n&quot;);&lt;/div&gt;&lt;div&gt;&amp;nbsp; &amp;nbsp; &amp;nbsp; &amp;nbsp; &amp;nbsp; &amp;nbsp; printf(&quot;Producto %d: \n&quot;, *num_productos + 1);&lt;/div&gt;" style="shape=parallelogram;perimeter=parallelogramPerimeter;whiteSpace=wrap;html=1;fixedSize=1;" vertex="1" parent="1">
          <mxGeometry x="255" y="2990" width="316" height="50" as="geometry" />
        </mxCell>
        <mxCell id="_RCZSidMVmDdS2dCk8SO-50" style="edgeStyle=orthogonalEdgeStyle;rounded=0;orthogonalLoop=1;jettySize=auto;html=1;" edge="1" parent="1" source="_RCZSidMVmDdS2dCk8SO-42" target="_RCZSidMVmDdS2dCk8SO-43">
          <mxGeometry relative="1" as="geometry" />
        </mxCell>
        <mxCell id="_RCZSidMVmDdS2dCk8SO-42" value="printf(&quot;Introduzca la clave del producto\n&quot;);" style="shape=parallelogram;perimeter=parallelogramPerimeter;whiteSpace=wrap;html=1;fixedSize=1;" vertex="1" parent="1">
          <mxGeometry x="274.5" y="3080" width="277" height="40" as="geometry" />
        </mxCell>
        <mxCell id="_RCZSidMVmDdS2dCk8SO-51" style="edgeStyle=orthogonalEdgeStyle;rounded=0;orthogonalLoop=1;jettySize=auto;html=1;entryX=0.5;entryY=0;entryDx=0;entryDy=0;" edge="1" parent="1" source="_RCZSidMVmDdS2dCk8SO-43" target="_RCZSidMVmDdS2dCk8SO-44">
          <mxGeometry relative="1" as="geometry" />
        </mxCell>
        <mxCell id="_RCZSidMVmDdS2dCk8SO-43" value="scanf(&quot;%d&quot;, &amp;amp;productos[*num_productos].clave" style="shape=parallelogram;perimeter=parallelogramPerimeter;whiteSpace=wrap;html=1;fixedSize=1;" vertex="1" parent="1">
          <mxGeometry x="260" y="3160" width="307" height="60" as="geometry" />
        </mxCell>
        <mxCell id="_RCZSidMVmDdS2dCk8SO-46" style="edgeStyle=orthogonalEdgeStyle;rounded=0;orthogonalLoop=1;jettySize=auto;html=1;" edge="1" parent="1" source="_RCZSidMVmDdS2dCk8SO-44" target="_RCZSidMVmDdS2dCk8SO-45">
          <mxGeometry relative="1" as="geometry" />
        </mxCell>
        <mxCell id="_RCZSidMVmDdS2dCk8SO-44" value="&amp;nbsp;printf(&quot;Introduzca la descripcion del producto\n&quot;);" style="shape=parallelogram;perimeter=parallelogramPerimeter;whiteSpace=wrap;html=1;fixedSize=1;" vertex="1" parent="1">
          <mxGeometry x="265.5" y="3260" width="297" height="60" as="geometry" />
        </mxCell>
        <mxCell id="_RCZSidMVmDdS2dCk8SO-54" style="edgeStyle=orthogonalEdgeStyle;rounded=0;orthogonalLoop=1;jettySize=auto;html=1;entryX=0.5;entryY=0;entryDx=0;entryDy=0;" edge="1" parent="1" source="_RCZSidMVmDdS2dCk8SO-45" target="_RCZSidMVmDdS2dCk8SO-47">
          <mxGeometry relative="1" as="geometry" />
        </mxCell>
        <mxCell id="_RCZSidMVmDdS2dCk8SO-45" value="scanf(&quot;%s&quot;, productos[*num_productos].descrip);" style="shape=parallelogram;perimeter=parallelogramPerimeter;whiteSpace=wrap;html=1;fixedSize=1;" vertex="1" parent="1">
          <mxGeometry x="261" y="3350" width="306" height="60" as="geometry" />
        </mxCell>
        <mxCell id="_RCZSidMVmDdS2dCk8SO-55" style="edgeStyle=orthogonalEdgeStyle;rounded=0;orthogonalLoop=1;jettySize=auto;html=1;" edge="1" parent="1" source="_RCZSidMVmDdS2dCk8SO-47" target="_RCZSidMVmDdS2dCk8SO-48">
          <mxGeometry relative="1" as="geometry" />
        </mxCell>
        <mxCell id="_RCZSidMVmDdS2dCk8SO-47" value="printf(&quot;Introduzca la existencia del producto\n&quot;);" style="shape=parallelogram;perimeter=parallelogramPerimeter;whiteSpace=wrap;html=1;fixedSize=1;" vertex="1" parent="1">
          <mxGeometry x="263" y="3450" width="300" height="50" as="geometry" />
        </mxCell>
        <mxCell id="_RCZSidMVmDdS2dCk8SO-71" style="edgeStyle=orthogonalEdgeStyle;rounded=0;orthogonalLoop=1;jettySize=auto;html=1;" edge="1" parent="1" source="_RCZSidMVmDdS2dCk8SO-48" target="_RCZSidMVmDdS2dCk8SO-56">
          <mxGeometry relative="1" as="geometry" />
        </mxCell>
        <mxCell id="_RCZSidMVmDdS2dCk8SO-48" value="scanf(&quot;%d&quot;, &amp;amp;productos[*num_productos].exist" style="shape=parallelogram;perimeter=parallelogramPerimeter;whiteSpace=wrap;html=1;fixedSize=1;" vertex="1" parent="1">
          <mxGeometry x="270" y="3540" width="286" height="60" as="geometry" />
        </mxCell>
        <mxCell id="_RCZSidMVmDdS2dCk8SO-73" style="edgeStyle=orthogonalEdgeStyle;rounded=0;orthogonalLoop=1;jettySize=auto;html=1;" edge="1" parent="1" source="_RCZSidMVmDdS2dCk8SO-56" target="_RCZSidMVmDdS2dCk8SO-57">
          <mxGeometry relative="1" as="geometry" />
        </mxCell>
        <mxCell id="_RCZSidMVmDdS2dCk8SO-56" value="printf(&quot;Introduzca la existencia minima del producto\n&quot;);" style="shape=parallelogram;perimeter=parallelogramPerimeter;whiteSpace=wrap;html=1;fixedSize=1;" vertex="1" parent="1">
          <mxGeometry x="250" y="3630" width="326" height="60" as="geometry" />
        </mxCell>
        <mxCell id="_RCZSidMVmDdS2dCk8SO-74" style="edgeStyle=orthogonalEdgeStyle;rounded=0;orthogonalLoop=1;jettySize=auto;html=1;" edge="1" parent="1" source="_RCZSidMVmDdS2dCk8SO-57" target="_RCZSidMVmDdS2dCk8SO-58">
          <mxGeometry relative="1" as="geometry" />
        </mxCell>
        <mxCell id="_RCZSidMVmDdS2dCk8SO-57" value="scanf(&quot;%d&quot;, &amp;amp;productos[*num_productos].min_exist" style="shape=parallelogram;perimeter=parallelogramPerimeter;whiteSpace=wrap;html=1;fixedSize=1;" vertex="1" parent="1">
          <mxGeometry x="245" y="3720" width="336" height="60" as="geometry" />
        </mxCell>
        <mxCell id="_RCZSidMVmDdS2dCk8SO-70" style="edgeStyle=orthogonalEdgeStyle;rounded=0;orthogonalLoop=1;jettySize=auto;html=1;" edge="1" parent="1" source="_RCZSidMVmDdS2dCk8SO-58" target="_RCZSidMVmDdS2dCk8SO-59">
          <mxGeometry relative="1" as="geometry" />
        </mxCell>
        <mxCell id="_RCZSidMVmDdS2dCk8SO-58" value="printf(&quot;Introduzca el precio unitario del producto\n&quot;);" style="shape=parallelogram;perimeter=parallelogramPerimeter;whiteSpace=wrap;html=1;fixedSize=1;" vertex="1" parent="1">
          <mxGeometry x="257" y="3810" width="314" height="60" as="geometry" />
        </mxCell>
        <mxCell id="_RCZSidMVmDdS2dCk8SO-69" style="edgeStyle=orthogonalEdgeStyle;rounded=0;orthogonalLoop=1;jettySize=auto;html=1;" edge="1" parent="1" source="_RCZSidMVmDdS2dCk8SO-59" target="_RCZSidMVmDdS2dCk8SO-60">
          <mxGeometry relative="1" as="geometry" />
        </mxCell>
        <mxCell id="_RCZSidMVmDdS2dCk8SO-59" value="scanf(&quot;%f&quot;, &amp;amp;productos[*num_productos].precio_uni" style="shape=parallelogram;perimeter=parallelogramPerimeter;whiteSpace=wrap;html=1;fixedSize=1;" vertex="1" parent="1">
          <mxGeometry x="255" y="3900" width="316" height="60" as="geometry" />
        </mxCell>
        <mxCell id="_RCZSidMVmDdS2dCk8SO-68" style="edgeStyle=orthogonalEdgeStyle;rounded=0;orthogonalLoop=1;jettySize=auto;html=1;" edge="1" parent="1" source="_RCZSidMVmDdS2dCk8SO-60" target="_RCZSidMVmDdS2dCk8SO-61">
          <mxGeometry relative="1" as="geometry" />
        </mxCell>
        <mxCell id="_RCZSidMVmDdS2dCk8SO-60" value="printf(&quot;¿La informacion introducida es correcta? (1.- Si | 2.- No)\n&quot;);" style="shape=parallelogram;perimeter=parallelogramPerimeter;whiteSpace=wrap;html=1;fixedSize=1;" vertex="1" parent="1">
          <mxGeometry x="208" y="4000" width="410" height="60" as="geometry" />
        </mxCell>
        <mxCell id="_RCZSidMVmDdS2dCk8SO-67" style="edgeStyle=orthogonalEdgeStyle;rounded=0;orthogonalLoop=1;jettySize=auto;html=1;entryX=0.5;entryY=0;entryDx=0;entryDy=0;" edge="1" parent="1" source="_RCZSidMVmDdS2dCk8SO-61" target="_RCZSidMVmDdS2dCk8SO-62">
          <mxGeometry relative="1" as="geometry" />
        </mxCell>
        <mxCell id="_RCZSidMVmDdS2dCk8SO-61" value="scanf(&quot;%d&quot;, &amp;amp;op1)" style="shape=parallelogram;perimeter=parallelogramPerimeter;whiteSpace=wrap;html=1;fixedSize=1;" vertex="1" parent="1">
          <mxGeometry x="328" y="4100" width="170" height="60" as="geometry" />
        </mxCell>
        <mxCell id="_RCZSidMVmDdS2dCk8SO-65" style="edgeStyle=orthogonalEdgeStyle;rounded=0;orthogonalLoop=1;jettySize=auto;html=1;" edge="1" parent="1" source="_RCZSidMVmDdS2dCk8SO-62" target="_RCZSidMVmDdS2dCk8SO-64">
          <mxGeometry relative="1" as="geometry" />
        </mxCell>
        <mxCell id="_RCZSidMVmDdS2dCk8SO-62" value="op1 == 1" style="rhombus;whiteSpace=wrap;html=1;" vertex="1" parent="1">
          <mxGeometry x="373" y="4200" width="80" height="80" as="geometry" />
        </mxCell>
        <mxCell id="_RCZSidMVmDdS2dCk8SO-75" style="edgeStyle=orthogonalEdgeStyle;rounded=0;orthogonalLoop=1;jettySize=auto;html=1;entryX=0;entryY=0.5;entryDx=0;entryDy=0;" edge="1" parent="1" target="_RCZSidMVmDdS2dCk8SO-41">
          <mxGeometry relative="1" as="geometry">
            <mxPoint x="120" y="3300" as="targetPoint" />
            <mxPoint x="370" y="4240" as="sourcePoint" />
            <Array as="points">
              <mxPoint x="160" y="4240" />
              <mxPoint x="160" y="3015" />
            </Array>
          </mxGeometry>
        </mxCell>
        <mxCell id="_RCZSidMVmDdS2dCk8SO-87" style="edgeStyle=orthogonalEdgeStyle;rounded=0;orthogonalLoop=1;jettySize=auto;html=1;" edge="1" parent="1" source="_RCZSidMVmDdS2dCk8SO-64" target="_RCZSidMVmDdS2dCk8SO-80">
          <mxGeometry relative="1" as="geometry" />
        </mxCell>
        <mxCell id="_RCZSidMVmDdS2dCk8SO-64" value="&lt;div&gt;(*num_productos)++;&lt;/div&gt;&lt;div&gt;&amp;nbsp; &amp;nbsp; &amp;nbsp; &amp;nbsp; &amp;nbsp; &amp;nbsp; &amp;nbsp; &amp;nbsp; break;&lt;/div&gt;" style="rounded=1;whiteSpace=wrap;html=1;" vertex="1" parent="1">
          <mxGeometry x="353" y="4310" width="120" height="60" as="geometry" />
        </mxCell>
        <mxCell id="_RCZSidMVmDdS2dCk8SO-77" value="True" style="text;html=1;align=center;verticalAlign=middle;whiteSpace=wrap;rounded=0;" vertex="1" parent="1">
          <mxGeometry x="360" y="4270" width="60" height="30" as="geometry" />
        </mxCell>
        <mxCell id="_RCZSidMVmDdS2dCk8SO-79" value="False" style="text;html=1;align=center;verticalAlign=middle;whiteSpace=wrap;rounded=0;" vertex="1" parent="1">
          <mxGeometry x="314" y="4210" width="60" height="30" as="geometry" />
        </mxCell>
        <mxCell id="_RCZSidMVmDdS2dCk8SO-88" style="edgeStyle=orthogonalEdgeStyle;rounded=0;orthogonalLoop=1;jettySize=auto;html=1;" edge="1" parent="1" source="_RCZSidMVmDdS2dCk8SO-80" target="_RCZSidMVmDdS2dCk8SO-81">
          <mxGeometry relative="1" as="geometry" />
        </mxCell>
        <mxCell id="_RCZSidMVmDdS2dCk8SO-80" value="printf(&quot;¿Desea agregar otro producto? (1.- Si | 2.- No)\n&quot;);" style="shape=parallelogram;perimeter=parallelogramPerimeter;whiteSpace=wrap;html=1;fixedSize=1;" vertex="1" parent="1">
          <mxGeometry x="240" y="4400" width="346" height="60" as="geometry" />
        </mxCell>
        <mxCell id="_RCZSidMVmDdS2dCk8SO-86" style="edgeStyle=orthogonalEdgeStyle;rounded=0;orthogonalLoop=1;jettySize=auto;html=1;" edge="1" parent="1" source="_RCZSidMVmDdS2dCk8SO-81" target="_RCZSidMVmDdS2dCk8SO-82">
          <mxGeometry relative="1" as="geometry" />
        </mxCell>
        <mxCell id="_RCZSidMVmDdS2dCk8SO-81" value="scanf(&quot;%d&quot;, &amp;amp;op2)" style="shape=parallelogram;perimeter=parallelogramPerimeter;whiteSpace=wrap;html=1;fixedSize=1;" vertex="1" parent="1">
          <mxGeometry x="334.5" y="4490" width="157" height="60" as="geometry" />
        </mxCell>
        <mxCell id="_RCZSidMVmDdS2dCk8SO-84" value="" style="edgeStyle=orthogonalEdgeStyle;rounded=0;orthogonalLoop=1;jettySize=auto;html=1;" edge="1" parent="1" source="_RCZSidMVmDdS2dCk8SO-82" target="_RCZSidMVmDdS2dCk8SO-83">
          <mxGeometry relative="1" as="geometry" />
        </mxCell>
        <mxCell id="_RCZSidMVmDdS2dCk8SO-92" value="" style="edgeStyle=orthogonalEdgeStyle;rounded=0;orthogonalLoop=1;jettySize=auto;html=1;" edge="1" parent="1" source="_RCZSidMVmDdS2dCk8SO-82" target="_RCZSidMVmDdS2dCk8SO-91">
          <mxGeometry relative="1" as="geometry" />
        </mxCell>
        <mxCell id="_RCZSidMVmDdS2dCk8SO-82" value="op2 == 2" style="rhombus;whiteSpace=wrap;html=1;" vertex="1" parent="1">
          <mxGeometry x="374" y="4580" width="80" height="80" as="geometry" />
        </mxCell>
        <mxCell id="_RCZSidMVmDdS2dCk8SO-85" style="edgeStyle=orthogonalEdgeStyle;rounded=0;orthogonalLoop=1;jettySize=auto;html=1;" edge="1" parent="1" source="_RCZSidMVmDdS2dCk8SO-83" target="_RCZSidMVmDdS2dCk8SO-41">
          <mxGeometry relative="1" as="geometry">
            <Array as="points">
              <mxPoint x="80" y="4620" />
              <mxPoint x="80" y="3015" />
            </Array>
          </mxGeometry>
        </mxCell>
        <mxCell id="_RCZSidMVmDdS2dCk8SO-83" value="limpiar_pantalla()" style="whiteSpace=wrap;html=1;" vertex="1" parent="1">
          <mxGeometry x="194" y="4590" width="120" height="60" as="geometry" />
        </mxCell>
        <mxCell id="_RCZSidMVmDdS2dCk8SO-89" value="False" style="text;html=1;align=center;verticalAlign=middle;whiteSpace=wrap;rounded=0;" vertex="1" parent="1">
          <mxGeometry x="329" y="4590" width="60" height="30" as="geometry" />
        </mxCell>
        <mxCell id="_RCZSidMVmDdS2dCk8SO-108" style="edgeStyle=orthogonalEdgeStyle;rounded=0;orthogonalLoop=1;jettySize=auto;html=1;entryX=0.5;entryY=0;entryDx=0;entryDy=0;" edge="1" parent="1" source="_RCZSidMVmDdS2dCk8SO-91" target="_RCZSidMVmDdS2dCk8SO-107">
          <mxGeometry relative="1" as="geometry" />
        </mxCell>
        <mxCell id="_RCZSidMVmDdS2dCk8SO-91" value="limpiar_pantalla()&lt;div&gt;break;&lt;/div&gt;" style="whiteSpace=wrap;html=1;" vertex="1" parent="1">
          <mxGeometry x="354" y="4750" width="120" height="60" as="geometry" />
        </mxCell>
        <mxCell id="_RCZSidMVmDdS2dCk8SO-98" value="FIN" style="ellipse;whiteSpace=wrap;html=1;rounded=1;" vertex="1" parent="1">
          <mxGeometry x="374" y="1190" width="80" height="80" as="geometry" />
        </mxCell>
        <mxCell id="_RCZSidMVmDdS2dCk8SO-100" value="True" style="text;html=1;align=center;verticalAlign=middle;whiteSpace=wrap;rounded=0;" vertex="1" parent="1">
          <mxGeometry x="420" y="1120" width="60" height="30" as="geometry" />
        </mxCell>
        <mxCell id="_RCZSidMVmDdS2dCk8SO-106" style="edgeStyle=orthogonalEdgeStyle;rounded=0;orthogonalLoop=1;jettySize=auto;html=1;entryX=0;entryY=0.5;entryDx=0;entryDy=0;" edge="1" parent="1" source="_RCZSidMVmDdS2dCk8SO-103" target="ruOqabPLvEod-Vh73xAu-8">
          <mxGeometry relative="1" as="geometry">
            <Array as="points">
              <mxPoint x="20" y="1130" />
              <mxPoint x="20" y="465" />
            </Array>
          </mxGeometry>
        </mxCell>
        <mxCell id="_RCZSidMVmDdS2dCk8SO-103" value="limpiar_pantalla()" style="whiteSpace=wrap;html=1;rounded=1;" vertex="1" parent="1">
          <mxGeometry x="154.5" y="1100" width="120" height="60" as="geometry" />
        </mxCell>
        <mxCell id="_RCZSidMVmDdS2dCk8SO-105" value="False" style="text;html=1;align=center;verticalAlign=middle;whiteSpace=wrap;rounded=0;" vertex="1" parent="1">
          <mxGeometry x="329" y="1100" width="60" height="30" as="geometry" />
        </mxCell>
        <mxCell id="_RCZSidMVmDdS2dCk8SO-107" value="FIN" style="ellipse;whiteSpace=wrap;html=1;" vertex="1" parent="1">
          <mxGeometry x="354" y="4850" width="120" height="80" as="geometry" />
        </mxCell>
        <mxCell id="_RCZSidMVmDdS2dCk8SO-111" style="edgeStyle=orthogonalEdgeStyle;rounded=0;orthogonalLoop=1;jettySize=auto;html=1;entryX=0.5;entryY=0;entryDx=0;entryDy=0;" edge="1" parent="1" source="_RCZSidMVmDdS2dCk8SO-109" target="_RCZSidMVmDdS2dCk8SO-110">
          <mxGeometry relative="1" as="geometry" />
        </mxCell>
        <mxCell id="_RCZSidMVmDdS2dCk8SO-109" value="venta_producto(Producto *productos, int *num_productos)" style="ellipse;whiteSpace=wrap;html=1;" vertex="1" parent="1">
          <mxGeometry x="234" y="4980" width="360" height="80" as="geometry" />
        </mxCell>
        <mxCell id="_RCZSidMVmDdS2dCk8SO-110" value="&lt;div&gt;int clave, venta, nueva_exist = 0;&lt;/div&gt;&lt;div&gt;&amp;nbsp; &amp;nbsp; int i = 0, aux = 0, pos = 0, op1;&lt;/div&gt;" style="rounded=1;whiteSpace=wrap;html=1;" vertex="1" parent="1">
          <mxGeometry x="294" y="5100" width="240" height="60" as="geometry" />
        </mxCell>
        <mxCell id="_RCZSidMVmDdS2dCk8SO-112" value="aux = 1&lt;div&gt;clave = obtener_clave()&lt;/div&gt;" style="rounded=1;whiteSpace=wrap;html=1;" vertex="1" parent="1">
          <mxGeometry x="336" y="5200.5" width="156" height="60" as="geometry" />
        </mxCell>
        <mxCell id="_RCZSidMVmDdS2dCk8SO-116" style="edgeStyle=orthogonalEdgeStyle;rounded=0;orthogonalLoop=1;jettySize=auto;html=1;" edge="1" parent="1" source="_RCZSidMVmDdS2dCk8SO-113" target="_RCZSidMVmDdS2dCk8SO-115">
          <mxGeometry relative="1" as="geometry" />
        </mxCell>
        <mxCell id="_RCZSidMVmDdS2dCk8SO-113" value="clave == -1" style="rhombus;whiteSpace=wrap;html=1;" vertex="1" parent="1">
          <mxGeometry x="374" y="5290" width="80" height="80" as="geometry" />
        </mxCell>
        <mxCell id="_RCZSidMVmDdS2dCk8SO-120" style="edgeStyle=orthogonalEdgeStyle;rounded=0;orthogonalLoop=1;jettySize=auto;html=1;entryX=0.5;entryY=0;entryDx=0;entryDy=0;" edge="1" parent="1" source="_RCZSidMVmDdS2dCk8SO-115" target="_RCZSidMVmDdS2dCk8SO-118">
          <mxGeometry relative="1" as="geometry" />
        </mxCell>
        <mxCell id="_RCZSidMVmDdS2dCk8SO-115" value="i = 0; i &amp;lt; *numproductos; i++" style="shape=process;whiteSpace=wrap;html=1;backgroundOutline=1;size=0.15254237288135594;" vertex="1" parent="1">
          <mxGeometry x="295" y="5400" width="236" height="100" as="geometry" />
        </mxCell>
        <mxCell id="_RCZSidMVmDdS2dCk8SO-117" value="False" style="text;html=1;align=center;verticalAlign=middle;whiteSpace=wrap;rounded=0;" vertex="1" parent="1">
          <mxGeometry x="420" y="5360" width="60" height="30" as="geometry" />
        </mxCell>
        <mxCell id="_RCZSidMVmDdS2dCk8SO-118" value="productos[i].clave == clave" style="rhombus;whiteSpace=wrap;html=1;" vertex="1" parent="1">
          <mxGeometry x="310" y="5530" width="207" height="80" as="geometry" />
        </mxCell>
        <mxCell id="_RCZSidMVmDdS2dCk8SO-119" value="&lt;div&gt;aux = 0;&lt;/div&gt;&lt;div&gt;pos = I;&lt;/div&gt;&lt;div&gt;break;&lt;/div&gt;" style="rounded=1;whiteSpace=wrap;html=1;" vertex="1" parent="1">
          <mxGeometry x="353" y="5630" width="120" height="60" as="geometry" />
        </mxCell>
      </root>
    </mxGraphModel>
  </diagram>
  <diagram id="BsehhIxnIOKtYMKPCZCD" name="Page-2">
    <mxGraphModel dx="948" dy="1244" grid="1" gridSize="10" guides="1" tooltips="1" connect="1" arrows="1" fold="1" page="1" pageScale="1" pageWidth="850" pageHeight="1100" math="0" shadow="0">
      <root>
        <mxCell id="0" />
        <mxCell id="1" parent="0" />
        <mxCell id="zoZrK7dPsTGhW3FlA4j9-2" style="edgeStyle=orthogonalEdgeStyle;rounded=0;orthogonalLoop=1;jettySize=auto;html=1;entryX=0.5;entryY=0;entryDx=0;entryDy=0;" edge="1" parent="1" source="COwL6ai_R-exPn_rSJPj-1" target="zoZrK7dPsTGhW3FlA4j9-1">
          <mxGeometry relative="1" as="geometry" />
        </mxCell>
        <mxCell id="COwL6ai_R-exPn_rSJPj-1" value="2" style="ellipse;whiteSpace=wrap;html=1;aspect=fixed;" vertex="1" parent="1">
          <mxGeometry x="385" y="40" width="80" height="80" as="geometry" />
        </mxCell>
        <mxCell id="zoZrK7dPsTGhW3FlA4j9-7" style="edgeStyle=orthogonalEdgeStyle;rounded=0;orthogonalLoop=1;jettySize=auto;html=1;entryX=0.5;entryY=0;entryDx=0;entryDy=0;" edge="1" parent="1" source="zoZrK7dPsTGhW3FlA4j9-1" target="zoZrK7dPsTGhW3FlA4j9-3">
          <mxGeometry relative="1" as="geometry" />
        </mxCell>
        <mxCell id="zoZrK7dPsTGhW3FlA4j9-8" style="edgeStyle=orthogonalEdgeStyle;rounded=0;orthogonalLoop=1;jettySize=auto;html=1;exitX=0;exitY=0.75;exitDx=0;exitDy=0;entryX=0.5;entryY=0;entryDx=0;entryDy=0;" edge="1" parent="1" source="zoZrK7dPsTGhW3FlA4j9-1" target="zoZrK7dPsTGhW3FlA4j9-6">
          <mxGeometry relative="1" as="geometry">
            <Array as="points">
              <mxPoint x="374" y="200" />
              <mxPoint x="340" y="200" />
            </Array>
          </mxGeometry>
        </mxCell>
        <mxCell id="zoZrK7dPsTGhW3FlA4j9-9" style="edgeStyle=orthogonalEdgeStyle;rounded=0;orthogonalLoop=1;jettySize=auto;html=1;exitX=1;exitY=0.75;exitDx=0;exitDy=0;entryX=0.5;entryY=0;entryDx=0;entryDy=0;" edge="1" parent="1" source="zoZrK7dPsTGhW3FlA4j9-1" target="zoZrK7dPsTGhW3FlA4j9-5">
          <mxGeometry relative="1" as="geometry">
            <Array as="points">
              <mxPoint x="520" y="197" />
            </Array>
          </mxGeometry>
        </mxCell>
        <mxCell id="zoZrK7dPsTGhW3FlA4j9-10" style="edgeStyle=orthogonalEdgeStyle;rounded=0;orthogonalLoop=1;jettySize=auto;html=1;entryX=0.5;entryY=0;entryDx=0;entryDy=0;" edge="1" parent="1" source="zoZrK7dPsTGhW3FlA4j9-1" target="zoZrK7dPsTGhW3FlA4j9-4">
          <mxGeometry relative="1" as="geometry" />
        </mxCell>
        <mxCell id="zoZrK7dPsTGhW3FlA4j9-1" value="op1" style="shape=hexagon;perimeter=hexagonPerimeter2;whiteSpace=wrap;html=1;fixedSize=1;" vertex="1" parent="1">
          <mxGeometry x="365" y="140" width="120" height="80" as="geometry" />
        </mxCell>
        <mxCell id="zoZrK7dPsTGhW3FlA4j9-16" style="edgeStyle=orthogonalEdgeStyle;rounded=0;orthogonalLoop=1;jettySize=auto;html=1;entryX=0.5;entryY=0;entryDx=0;entryDy=0;" edge="1" parent="1" source="zoZrK7dPsTGhW3FlA4j9-3" target="zoZrK7dPsTGhW3FlA4j9-11">
          <mxGeometry relative="1" as="geometry" />
        </mxCell>
        <mxCell id="zoZrK7dPsTGhW3FlA4j9-3" value="1" style="rounded=1;whiteSpace=wrap;html=1;" vertex="1" parent="1">
          <mxGeometry x="90" y="250" width="120" height="60" as="geometry" />
        </mxCell>
        <mxCell id="zoZrK7dPsTGhW3FlA4j9-19" style="edgeStyle=orthogonalEdgeStyle;rounded=0;orthogonalLoop=1;jettySize=auto;html=1;entryX=0.5;entryY=0;entryDx=0;entryDy=0;" edge="1" parent="1" source="zoZrK7dPsTGhW3FlA4j9-4" target="zoZrK7dPsTGhW3FlA4j9-12">
          <mxGeometry relative="1" as="geometry" />
        </mxCell>
        <mxCell id="zoZrK7dPsTGhW3FlA4j9-4" value="4" style="rounded=1;whiteSpace=wrap;html=1;" vertex="1" parent="1">
          <mxGeometry x="640" y="250" width="120" height="60" as="geometry" />
        </mxCell>
        <mxCell id="zoZrK7dPsTGhW3FlA4j9-18" style="edgeStyle=orthogonalEdgeStyle;rounded=0;orthogonalLoop=1;jettySize=auto;html=1;entryX=0.5;entryY=0;entryDx=0;entryDy=0;" edge="1" parent="1" source="zoZrK7dPsTGhW3FlA4j9-5" target="zoZrK7dPsTGhW3FlA4j9-13">
          <mxGeometry relative="1" as="geometry" />
        </mxCell>
        <mxCell id="zoZrK7dPsTGhW3FlA4j9-5" value="3" style="rounded=1;whiteSpace=wrap;html=1;" vertex="1" parent="1">
          <mxGeometry x="460" y="250" width="120" height="60" as="geometry" />
        </mxCell>
        <mxCell id="zoZrK7dPsTGhW3FlA4j9-17" style="edgeStyle=orthogonalEdgeStyle;rounded=0;orthogonalLoop=1;jettySize=auto;html=1;entryX=0.5;entryY=0;entryDx=0;entryDy=0;" edge="1" parent="1" source="zoZrK7dPsTGhW3FlA4j9-6" target="zoZrK7dPsTGhW3FlA4j9-14">
          <mxGeometry relative="1" as="geometry" />
        </mxCell>
        <mxCell id="zoZrK7dPsTGhW3FlA4j9-6" value="2" style="rounded=1;whiteSpace=wrap;html=1;" vertex="1" parent="1">
          <mxGeometry x="280" y="250" width="120" height="60" as="geometry" />
        </mxCell>
        <mxCell id="zoZrK7dPsTGhW3FlA4j9-11" value="&lt;div&gt;limpiar_pantalla(); &amp;nbsp; &amp;nbsp; &amp;nbsp; venta_producto(ptr_productos, ptr_num_productos);&lt;/div&gt;&lt;div&gt;&amp;nbsp; &amp;nbsp; &amp;nbsp; &amp;nbsp; &amp;nbsp; &amp;nbsp; break;&lt;/div&gt;" style="rounded=1;whiteSpace=wrap;html=1;" vertex="1" parent="1">
          <mxGeometry x="35" y="340" width="175" height="130" as="geometry" />
        </mxCell>
        <mxCell id="zoZrK7dPsTGhW3FlA4j9-12" value="&lt;div&gt;limpiar_pantalla(); &amp;nbsp; &amp;nbsp; &amp;nbsp; &amp;nbsp; &amp;nbsp; &amp;nbsp;informe_productos(ptr_productos, ptr_num_productos);&lt;/div&gt;&lt;div&gt;&amp;nbsp; &amp;nbsp; &amp;nbsp; &amp;nbsp; &amp;nbsp; &amp;nbsp; break;&lt;/div&gt;" style="rounded=1;whiteSpace=wrap;html=1;" vertex="1" parent="1">
          <mxGeometry x="665" y="340" width="150" height="110" as="geometry" />
        </mxCell>
        <mxCell id="zoZrK7dPsTGhW3FlA4j9-13" value="&lt;div&gt;limpiar_pantalla(); &amp;nbsp; &amp;nbsp; &amp;nbsp; &amp;nbsp; &amp;nbsp; &amp;nbsp;actualizar_precio_producto(ptr_productos, ptr_num_productos);&lt;/div&gt;&lt;div&gt;&amp;nbsp; &amp;nbsp; &amp;nbsp; &amp;nbsp; &amp;nbsp; &amp;nbsp; break;&lt;/div&gt;" style="rounded=1;whiteSpace=wrap;html=1;" vertex="1" parent="1">
          <mxGeometry x="425" y="350" width="220" height="120" as="geometry" />
        </mxCell>
        <mxCell id="zoZrK7dPsTGhW3FlA4j9-14" value="&lt;div&gt;limpiar_pantalla(); &amp;nbsp; &amp;nbsp; &amp;nbsp; &amp;nbsp; &amp;nbsp; &amp;nbsp;restock_producto(ptr_productos, ptr_num_productos);&lt;/div&gt;&lt;div&gt;&amp;nbsp; &amp;nbsp; &amp;nbsp; &amp;nbsp; &amp;nbsp; &amp;nbsp; break;&lt;/div&gt;" style="rounded=1;whiteSpace=wrap;html=1;" vertex="1" parent="1">
          <mxGeometry x="235" y="340" width="180" height="130" as="geometry" />
        </mxCell>
      </root>
    </mxGraphModel>
  </diagram>
</mxfile>
